<mxfile host="app.diagrams.net" modified="2023-05-26T04:48:47.798Z" agent="5.0 (Macintosh; Intel Mac OS X 10_15_7) AppleWebKit/537.36 (KHTML, like Gecko) Chrome/113.0.0.0 Safari/537.36" etag="h4-g2-5SbUosPUF7F1-d" version="20.8.23" type="github">
  <diagram name="第1頁" id="pTdbA5UM3i_hhNW9NHbF">
    <mxGraphModel dx="1127" dy="689" grid="1" gridSize="10" guides="1" tooltips="1" connect="1" arrows="1" fold="1" page="1" pageScale="1" pageWidth="827" pageHeight="1169" math="0" shadow="0">
      <root>
        <mxCell id="0" />
        <mxCell id="1" parent="0" />
        <mxCell id="v_c1Cu9leKUmqeBzcQBM-57" value="" style="rounded=0;whiteSpace=wrap;html=1;" vertex="1" parent="1">
          <mxGeometry x="385" y="450" width="400" height="290" as="geometry" />
        </mxCell>
        <mxCell id="v_c1Cu9leKUmqeBzcQBM-1" value="" style="rounded=0;whiteSpace=wrap;html=1;fontSize=18;" vertex="1" parent="1">
          <mxGeometry x="405" y="490" width="360" height="230" as="geometry" />
        </mxCell>
        <mxCell id="v_c1Cu9leKUmqeBzcQBM-5" value="&lt;font style=&quot;font-size: 18px&quot;&gt;ECS&lt;/font&gt;" style="text;html=1;strokeColor=none;fillColor=none;align=center;verticalAlign=middle;whiteSpace=wrap;rounded=0;" vertex="1" parent="1">
          <mxGeometry x="405" y="503" width="90" height="30" as="geometry" />
        </mxCell>
        <mxCell id="v_c1Cu9leKUmqeBzcQBM-6" value="" style="rounded=0;whiteSpace=wrap;html=1;fontSize=18;" vertex="1" parent="1">
          <mxGeometry x="415" y="558" width="330" height="142" as="geometry" />
        </mxCell>
        <mxCell id="v_c1Cu9leKUmqeBzcQBM-7" value="&lt;font style=&quot;font-size: 18px&quot;&gt;Kapture Integration Services&lt;/font&gt;" style="text;html=1;strokeColor=none;fillColor=none;align=center;verticalAlign=middle;whiteSpace=wrap;rounded=0;" vertex="1" parent="1">
          <mxGeometry x="415" y="558" width="271" height="40" as="geometry" />
        </mxCell>
        <mxCell id="v_c1Cu9leKUmqeBzcQBM-8" value="Core" style="rounded=1;whiteSpace=wrap;html=1;fontSize=18;strokeColor=#0000FF;" vertex="1" parent="1">
          <mxGeometry x="439.5" y="604" width="120" height="50" as="geometry" />
        </mxCell>
        <mxCell id="v_c1Cu9leKUmqeBzcQBM-11" value="DB" style="strokeWidth=2;html=1;shape=mxgraph.flowchart.database;whiteSpace=wrap;fontSize=18;" vertex="1" parent="1">
          <mxGeometry x="570" y="331.5" width="85" height="97" as="geometry" />
        </mxCell>
        <mxCell id="v_c1Cu9leKUmqeBzcQBM-12" value="Redis" style="strokeWidth=2;html=1;shape=mxgraph.flowchart.database;whiteSpace=wrap;fontSize=18;" vertex="1" parent="1">
          <mxGeometry x="780" y="330" width="90" height="100" as="geometry" />
        </mxCell>
        <mxCell id="v_c1Cu9leKUmqeBzcQBM-20" value="" style="html=1;verticalLabelPosition=bottom;align=center;labelBackgroundColor=#ffffff;verticalAlign=top;strokeWidth=2;strokeColor=#0080F0;shadow=0;dashed=0;shape=mxgraph.ios7.icons.smartphone;fontSize=18;" vertex="1" parent="1">
          <mxGeometry x="250" y="953" width="39" height="65" as="geometry" />
        </mxCell>
        <mxCell id="v_c1Cu9leKUmqeBzcQBM-21" value="" style="endArrow=classic;startArrow=classic;html=1;rounded=0;strokeColor=#0000FF;" edge="1" parent="1">
          <mxGeometry width="50" height="50" relative="1" as="geometry">
            <mxPoint x="300" y="585" as="sourcePoint" />
            <mxPoint x="380" y="585" as="targetPoint" />
          </mxGeometry>
        </mxCell>
        <mxCell id="v_c1Cu9leKUmqeBzcQBM-23" value="" style="endArrow=classic;startArrow=classic;html=1;rounded=0;fontSize=18;" edge="1" parent="1">
          <mxGeometry width="50" height="50" relative="1" as="geometry">
            <mxPoint x="300" y="985" as="sourcePoint" />
            <mxPoint x="380" y="985" as="targetPoint" />
            <Array as="points" />
          </mxGeometry>
        </mxCell>
        <mxCell id="v_c1Cu9leKUmqeBzcQBM-59" value="&lt;span style=&quot;font-size: 18px;&quot;&gt;ALB&lt;/span&gt;" style="text;html=1;strokeColor=none;fillColor=none;align=center;verticalAlign=middle;whiteSpace=wrap;rounded=0;" vertex="1" parent="1">
          <mxGeometry x="385" y="450" width="70" height="30" as="geometry" />
        </mxCell>
        <mxCell id="v_c1Cu9leKUmqeBzcQBM-61" value="&lt;font style=&quot;font-size: 18px;&quot; color=&quot;#000000&quot;&gt;&lt;b&gt;Subscriber&lt;/b&gt;&lt;/font&gt;" style="rounded=1;whiteSpace=wrap;html=1;fontColor=#0000FF;" vertex="1" parent="1">
          <mxGeometry x="870" y="450" width="120" height="671.5" as="geometry" />
        </mxCell>
        <mxCell id="v_c1Cu9leKUmqeBzcQBM-63" value="" style="rounded=0;whiteSpace=wrap;html=1;" vertex="1" parent="1">
          <mxGeometry x="390" y="830.5" width="400" height="290" as="geometry" />
        </mxCell>
        <mxCell id="v_c1Cu9leKUmqeBzcQBM-64" value="" style="rounded=0;whiteSpace=wrap;html=1;fontSize=18;" vertex="1" parent="1">
          <mxGeometry x="410" y="870.5" width="360" height="230" as="geometry" />
        </mxCell>
        <mxCell id="v_c1Cu9leKUmqeBzcQBM-65" value="&lt;font style=&quot;font-size: 18px&quot;&gt;EC2&lt;/font&gt;" style="text;html=1;strokeColor=none;fillColor=none;align=center;verticalAlign=middle;whiteSpace=wrap;rounded=0;" vertex="1" parent="1">
          <mxGeometry x="410" y="883.5" width="90" height="30" as="geometry" />
        </mxCell>
        <mxCell id="v_c1Cu9leKUmqeBzcQBM-66" value="" style="rounded=0;whiteSpace=wrap;html=1;fontSize=18;" vertex="1" parent="1">
          <mxGeometry x="420" y="938.5" width="330" height="142" as="geometry" />
        </mxCell>
        <mxCell id="v_c1Cu9leKUmqeBzcQBM-67" value="&lt;font style=&quot;font-size: 18px&quot;&gt;Kapture API&lt;/font&gt;" style="text;html=1;strokeColor=none;fillColor=none;align=center;verticalAlign=middle;whiteSpace=wrap;rounded=0;" vertex="1" parent="1">
          <mxGeometry x="419" y="938.5" width="171" height="40" as="geometry" />
        </mxCell>
        <mxCell id="v_c1Cu9leKUmqeBzcQBM-68" value="D2" style="rounded=1;whiteSpace=wrap;html=1;fontSize=18;strokeColor=#0000FF;" vertex="1" parent="1">
          <mxGeometry x="440" y="984.5" width="80" height="45.5" as="geometry" />
        </mxCell>
        <mxCell id="v_c1Cu9leKUmqeBzcQBM-70" value="&lt;span style=&quot;font-size: 18px;&quot;&gt;ALB&lt;/span&gt;" style="text;html=1;strokeColor=none;fillColor=none;align=center;verticalAlign=middle;whiteSpace=wrap;rounded=0;" vertex="1" parent="1">
          <mxGeometry x="390" y="830.5" width="70" height="30" as="geometry" />
        </mxCell>
        <mxCell id="v_c1Cu9leKUmqeBzcQBM-72" value="&lt;font style=&quot;font-size: 18px;&quot;&gt;KMS&lt;/font&gt;" style="ellipse;shape=cloud;whiteSpace=wrap;html=1;strokeColor=#000000;" vertex="1" parent="1">
          <mxGeometry x="180" y="545" width="120" height="80" as="geometry" />
        </mxCell>
        <mxCell id="v_c1Cu9leKUmqeBzcQBM-73" value="WebAdmin" style="rounded=1;whiteSpace=wrap;html=1;fontSize=18;strokeColor=#0000FF;" vertex="1" parent="1">
          <mxGeometry x="630" y="982.5" width="100" height="47.5" as="geometry" />
        </mxCell>
        <mxCell id="v_c1Cu9leKUmqeBzcQBM-74" value="EZAdmin" style="rounded=1;whiteSpace=wrap;html=1;fontSize=18;strokeColor=#0000FF;" vertex="1" parent="1">
          <mxGeometry x="530" y="984.5" width="90" height="45.5" as="geometry" />
        </mxCell>
        <mxCell id="v_c1Cu9leKUmqeBzcQBM-75" value="" style="endArrow=classic;startArrow=classic;html=1;rounded=0;fontSize=18;fontColor=#000000;" edge="1" parent="1">
          <mxGeometry width="50" height="50" relative="1" as="geometry">
            <mxPoint x="590" y="820" as="sourcePoint" />
            <mxPoint x="590" y="750" as="targetPoint" />
          </mxGeometry>
        </mxCell>
        <mxCell id="v_c1Cu9leKUmqeBzcQBM-26" value="&lt;font size=&quot;1&quot; style=&quot;&quot;&gt;&lt;b style=&quot;font-size: 18px;&quot;&gt;HiveMQ&lt;/b&gt;&lt;/font&gt;" style="rounded=1;whiteSpace=wrap;html=1;fontSize=18;strokeColor=#000000;rotation=90;movable=1;resizable=1;rotatable=1;deletable=1;editable=1;locked=0;connectable=1;" vertex="1" parent="1">
          <mxGeometry x="790" y="726.43" width="675.71" height="118.63" as="geometry" />
        </mxCell>
      </root>
    </mxGraphModel>
  </diagram>
</mxfile>
